PathFileType	4	(X/Y/Z)	 control3min.trc
DataRate	CameraRate	NumFrames	NumMarkers	Units	OrigDataRate	OrigDataStartFrame	OrigNumFrames
200	200	7	43	m	200	1	1000
Frame#	Time	C7			LSH			RSH			MAN			RASI			LASI			HIPR			HIPL			RPSI			LPSI			COX			RTHI1			RTHI2			RTHI3			RTHI4			RLKN			RMKN			RSHA1			RSHA2			RSHA3			RSHA4			RLMAL			RMMAL			RHEEL			RMET5			RMET1			RTOE			LTHI1			LTHI2			LTHI3			LTHI4			LLKN			LMKN			LSHA1			LSHA2			LSHA3			LSHA4			LLMAL			LMMAL			LHEEL			LMET5			LMET1			LTOE			
		X1	Y1	Z1	X2	Y2	Z2	X3	Y3	Z3	X4	Y4	Z4	X5	Y5	Z5	X6	Y6	Z6	X7	Y7	Z7	X8	Y8	Z8	X9	Y9	Z9	X10	Y10	Z10	X11	Y11	Z11	X12	Y12	Z12	X13	Y13	Z13	X14	Y14	Z14	X15	Y15	Z15	X16	Y16	Z16	X17	Y17	Z17	X18	Y18	Z18	X19	Y19	Z19	X20	Y20	Z20	X21	Y21	Z21	X22	Y22	Z22	X23	Y23	Z23	X24	Y24	Z24	X25	Y25	Z25	X26	Y26	Z26	X27	Y27	Z27	X28	Y28	Z28	X29	Y29	Z29	X30	Y30	Z30	X31	Y31	Z31	X32	Y32	Z32	X33	Y33	Z33	X34	Y34	Z34	X35	Y35	Z35	X36	Y36	Z36	X37	Y37	Z37	X38	Y38	Z38	X39	Y39	Z39	X40	Y40	Z40	X41	Y41	Z41	X42	Y42	Z42	X43	Y43	Z43	
1	0.0050	-0.144220	1.501549	-0.516861	-0.088485	1.466858	-0.716174	-0.060378	1.458612	-0.318878	-0.017825	1.417663	-0.518980	-0.092298	0.982794	-0.386693	-0.101189	0.981112	-0.650300	-0.164867	1.052369	-0.343822	-0.153886	1.034343	-0.683493	-0.274159	1.015534	-0.456573	-0.273419	1.016587	-0.557966	-0.277084	1.012304	-0.511399	-0.150129	0.769007	-0.317113	-0.142171	0.708213	-0.318260	-0.071759	0.725534	-0.313292	-0.086697	0.783453	-0.314206	-0.087718	0.457243	-0.329751	-0.085994	0.455244	-0.460993	-0.210063	0.323413	-0.331983	-0.223449	0.284110	-0.344061	-0.169153	0.264960	-0.323013	-0.159072	0.303130	-0.317407	-0.259420	0.093697	-0.342595	-0.224422	0.096742	-0.435480	-0.315046	0.075349	-0.385127	-0.154865	0.032666	-0.305835	-0.100873	0.046347	-0.389408	-0.068605	0.036613	-0.383425	-0.189392	0.759625	-0.692160	-0.169134	0.701810	-0.699994	-0.111124	0.719188	-0.721989	-0.122959	0.778710	-0.717425	-0.105528	0.469138	-0.699424	-0.078005	0.457597	-0.572391	-0.233684	0.293816	-0.693720	-0.253400	0.259602	-0.682673	-0.198971	0.232625	-0.689171	-0.184347	0.272737	-0.700338	-0.290419	0.096136	-0.677865	-0.269801	0.094190	-0.586343	-0.349760	0.081534	-0.635028	-0.188359	0.036076	-0.709612	-0.138856	0.048190	-0.627809	-0.110654	0.037618	-0.629459	
2	0.0100	-0.144499	1.502696	-0.516963	-0.088440	1.468493	-0.716141	-0.060421	1.459773	-0.319000	-0.017892	1.419069	-0.519117	-0.092011	0.984128	-0.386897	-0.100647	0.982423	-0.650133	-0.165604	1.055016	-0.344098	-0.153946	1.036457	-0.683656	-0.273809	1.016473	-0.456682	-0.273021	1.017700	-0.558135	-0.276729	1.013426	-0.511550	-0.149741	0.770241	-0.317175	-0.141812	0.709445	-0.318213	-0.071372	0.726737	-0.313415	-0.086300	0.784634	-0.314330	-0.087323	0.458402	-0.329643	-0.085144	0.455919	-0.460892	-0.209680	0.324613	-0.331862	-0.223089	0.285247	-0.343987	-0.168756	0.266088	-0.322937	-0.158716	0.304288	-0.317299	-0.259003	0.094749	-0.342582	-0.223938	0.097783	-0.435326	-0.314533	0.076710	-0.385011	-0.154763	0.032736	-0.305930	-0.100699	0.046186	-0.389300	-0.068495	0.036617	-0.383444	-0.189254	0.760707	-0.691977	-0.169120	0.702852	-0.699717	-0.111043	0.719994	-0.721639	-0.122733	0.779580	-0.717177	-0.105835	0.469967	-0.698870	-0.077974	0.458598	-0.571926	-0.233816	0.294440	-0.693385	-0.253439	0.260279	-0.682424	-0.199000	0.233369	-0.688860	-0.184414	0.273497	-0.699978	-0.290180	0.096626	-0.677830	-0.269651	0.094653	-0.586318	-0.349573	0.082211	-0.634993	-0.188287	0.035985	-0.709325	-0.138728	0.048161	-0.627747	-0.110550	0.037543	-0.629434	
3	0.0150	-0.144781	1.504406	-0.517004	-0.088471	1.470585	-0.716144	-0.060512	1.461543	-0.319136	-0.017997	1.421022	-0.519234	-0.091645	0.986064	-0.387096	-0.100051	0.984333	-0.650022	-0.165837	1.057905	-0.344346	-0.153615	1.039037	-0.683836	-0.273399	1.017701	-0.456757	-0.272560	1.019326	-0.558345	-0.276311	1.015048	-0.511731	-0.149371	0.772012	-0.317181	-0.141507	0.711211	-0.318153	-0.071042	0.728433	-0.313526	-0.085900	0.786332	-0.314456	-0.087215	0.460053	-0.329494	-0.084570	0.457278	-0.460773	-0.209411	0.326200	-0.331670	-0.222827	0.286776	-0.343771	-0.168470	0.267665	-0.322745	-0.158502	0.305875	-0.317071	-0.258526	0.096093	-0.342365	-0.223389	0.099150	-0.434991	-0.313934	0.078378	-0.384769	-0.154634	0.032821	-0.306018	-0.100556	0.046153	-0.389324	-0.068416	0.036619	-0.383465	-0.189164	0.762313	-0.691834	-0.169208	0.704397	-0.699478	-0.111023	0.721296	-0.721297	-0.122541	0.780944	-0.716931	-0.106464	0.471273	-0.698364	-0.078472	0.459946	-0.571487	-0.234106	0.295374	-0.693268	-0.253615	0.261218	-0.682399	-0.199129	0.234428	-0.688698	-0.184595	0.274575	-0.699751	-0.289916	0.097363	-0.678050	-0.269502	0.095338	-0.586536	-0.349310	0.083090	-0.635271	-0.188167	0.035910	-0.709166	-0.138640	0.048119	-0.627714	-0.110512	0.037527	-0.629394	
4	0.0200	-0.145075	1.506268	-0.517041	-0.088512	1.472832	-0.716139	-0.060610	1.463481	-0.319270	-0.018112	1.423128	-0.519343	-0.091260	0.988142	-0.387290	-0.099444	0.986380	-0.649930	-0.165962	1.060863	-0.344588	-0.153189	1.041737	-0.684008	-0.272919	1.019392	-0.456872	-0.272073	1.021085	-0.558558	-0.275868	1.016805	-0.511922	-0.149018	0.773917	-0.317188	-0.141222	0.713106	-0.318091	-0.070733	0.730251	-0.313629	-0.085516	0.788153	-0.314579	-0.087192	0.461831	-0.329323	-0.084098	0.458790	-0.460642	-0.209191	0.327870	-0.331470	-0.222596	0.288384	-0.343533	-0.168213	0.269335	-0.322511	-0.158327	0.307566	-0.316815	-0.258047	0.097521	-0.342123	-0.222821	0.100585	-0.434621	-0.313305	0.080134	-0.384492	-0.154492	0.032905	-0.306094	-0.100425	0.046091	-0.389290	-0.068340	0.036618	-0.383480	-0.189096	0.764061	-0.691716	-0.169326	0.706079	-0.699262	-0.111030	0.722728	-0.720969	-0.122368	0.782433	-0.716696	-0.107201	0.472717	-0.697882	-0.079142	0.461382	-0.571050	-0.234443	0.296390	-0.693193	-0.253835	0.262228	-0.682410	-0.199292	0.235575	-0.688574	-0.184827	0.275747	-0.699567	-0.289647	0.098165	-0.678321	-0.269352	0.096083	-0.586798	-0.349032	0.084048	-0.635598	-0.188036	0.035864	-0.709029	-0.138558	0.048086	-0.627682	-0.110476	0.037515	-0.629346	
5	0.0250	-0.145395	1.508590	-0.517051	-0.088599	1.475498	-0.716138	-0.060735	1.465898	-0.319413	-0.018260	1.425687	-0.519432	-0.090815	0.990678	-0.387474	-0.098804	0.988877	-0.649887	-0.165727	1.064030	-0.344809	-0.152470	1.044811	-0.684178	-0.272431	1.021617	-0.457179	-0.271522	1.023256	-0.558799	-0.275366	1.018974	-0.512142	-0.148697	0.776237	-0.317173	-0.140995	0.715410	-0.318024	-0.070487	0.732454	-0.313712	-0.085157	0.790368	-0.314695	-0.087411	0.464001	-0.329102	-0.083898	0.460796	-0.460482	-0.209094	0.329820	-0.331216	-0.222463	0.290273	-0.343215	-0.168049	0.271337	-0.322176	-0.158281	0.309598	-0.316476	-0.257518	0.099172	-0.341754	-0.222193	0.102265	-0.434122	-0.312595	0.082137	-0.384108	-0.154305	0.033021	-0.306194	-0.100300	0.046071	-0.389266	-0.068284	0.036620	-0.383494	-0.189082	0.766238	-0.691648	-0.169531	0.708174	-0.699096	-0.111102	0.724562	-0.720663	-0.122231	0.784319	-0.716474	-0.108226	0.474564	-0.697459	-0.080278	0.463115	-0.570634	-0.234916	0.297658	-0.693267	-0.254177	0.263452	-0.682564	-0.199545	0.236987	-0.688569	-0.185179	0.277198	-0.699501	-0.289355	0.099157	-0.678761	-0.269194	0.097016	-0.587225	-0.348696	0.085204	-0.636122	-0.187873	0.035809	-0.708945	-0.138506	0.048054	-0.627671	-0.110474	0.037526	-0.629296	
6	0.0300	-0.145757	1.511329	-0.517043	-0.088721	1.478579	-0.716124	-0.060899	1.468784	-0.319541	-0.018433	1.428662	-0.519503	-0.090321	0.993598	-0.387644	-0.098142	0.991733	-0.649886	-0.165222	1.067404	-0.345012	-0.151525	1.048202	-0.684326	-0.272005	1.024287	-0.457326	-0.270910	1.025788	-0.559049	-0.274802	1.021510	-0.512390	-0.148426	0.778903	-0.317170	-0.140836	0.718057	-0.317949	-0.070303	0.734973	-0.313776	-0.084849	0.792907	-0.314801	-0.087862	0.466512	-0.328821	-0.083970	0.463180	-0.460280	-0.209140	0.332003	-0.330898	-0.222414	0.292365	-0.342839	-0.167982	0.273601	-0.321737	-0.158333	0.311901	-0.316061	-0.256990	0.101049	-0.341296	-0.221510	0.104114	-0.433519	-0.311802	0.084351	-0.383623	-0.154077	0.033171	-0.306321	-0.100190	0.046067	-0.389209	-0.068253	0.036630	-0.383506	-0.189128	0.768794	-0.691643	-0.169820	0.710636	-0.698989	-0.111256	0.726749	-0.720392	-0.122138	0.786550	-0.716276	-0.109526	0.476784	-0.697101	-0.081851	0.465113	-0.570237	-0.235516	0.299159	-0.693440	-0.254632	0.264878	-0.682803	-0.199883	0.238652	-0.688665	-0.185665	0.278912	-0.699544	-0.289034	0.100313	-0.679308	-0.269026	0.098112	-0.587762	-0.348307	0.086552	-0.636746	-0.187674	0.035841	-0.708963	-0.138467	0.048022	-0.627682	-0.110504	0.037542	-0.629241	
7	0.0350	-0.146159	1.514501	-0.517028	-0.088878	1.482116	-0.716094	-0.061095	1.472180	-0.319659	-0.018639	1.432089	-0.519552	-0.089778	0.996931	-0.387801	-0.097457	0.994980	-0.649929	-0.164423	1.071017	-0.345199	-0.150360	1.051958	-0.684455	-0.271435	1.027272	-0.457636	-0.270225	1.028733	-0.559328	-0.274168	1.024467	-0.512664	-0.148216	0.781951	-0.317167	-0.140771	0.721074	-0.317877	-0.070208	0.737838	-0.313805	-0.084600	0.795800	-0.314886	-0.088564	0.469384	-0.328475	-0.084363	0.465950	-0.460023	-0.209341	0.334429	-0.330531	-0.222470	0.294678	-0.342395	-0.168011	0.276153	-0.321194	-0.158503	0.314496	-0.315558	-0.256407	0.103122	-0.340748	-0.220757	0.106171	-0.432803	-0.310916	0.086782	-0.383046	-0.153800	0.033360	-0.306438	-0.100083	0.046053	-0.389095	-0.068236	0.036635	-0.383515	-0.189246	0.771775	-0.691702	-0.170206	0.713515	-0.698953	-0.111501	0.729336	-0.720164	-0.122101	0.789173	-0.716111	-0.111125	0.479411	-0.696833	-0.083903	0.467439	-0.569868	-0.236256	0.300921	-0.693712	-0.255209	0.266546	-0.683126	-0.200317	0.240601	-0.688873	-0.186291	0.280920	-0.699701	-0.288684	0.101676	-0.679964	-0.268815	0.099420	-0.588415	-0.347852	0.088138	-0.637470	-0.187456	0.035892	-0.709011	-0.138441	0.047999	-0.627722	-0.110551	0.037562	-0.629193	
